<?xml version="1.0" encoding="UTF-8" standalone="no"?>
<!-- Created with Inkscape (http://www.inkscape.org/) -->
<svg
   xmlns:dc="http://purl.org/dc/elements/1.1/"
   xmlns:cc="http://creativecommons.org/ns#"
   xmlns:rdf="http://www.w3.org/1999/02/22-rdf-syntax-ns#"
   xmlns:svg="http://www.w3.org/2000/svg"
   xmlns="http://www.w3.org/2000/svg"
   xmlns:sodipodi="http://sodipodi.sourceforge.net/DTD/sodipodi-0.dtd"
   xmlns:inkscape="http://www.inkscape.org/namespaces/inkscape"
   version="1.0"
   width="810"
   height="1200"
   id="svg1894"
   sodipodi:version="0.32"
   inkscape:version="0.46"
   sodipodi:docname="Baritone_C_clef_with_ref.svg"
   inkscape:output_extension="org.inkscape.output.svg.inkscape">
  <metadata
     id="metadata22">
    <rdf:RDF>
      <cc:Work
         rdf:about="">
        <dc:format>image/svg+xml</dc:format>
        <dc:type
           rdf:resource="http://purl.org/dc/dcmitype/StillImage" />
      </cc:Work>
    </rdf:RDF>
  </metadata>
  <sodipodi:namedview
     inkscape:window-height="883"
     inkscape:window-width="1271"
     inkscape:pageshadow="2"
     inkscape:pageopacity="0.0"
     guidetolerance="10.0"
     gridtolerance="10.0"
     objecttolerance="10.0"
     borderopacity="1.0"
     bordercolor="#666666"
     pagecolor="#ffffff"
     id="base"
     showgrid="false"
     inkscape:zoom="0.38333333"
     inkscape:cx="-101.48088"
     inkscape:cy="600"
     inkscape:window-x="24"
     inkscape:window-y="24"
     inkscape:current-layer="layer2" />
  <defs
     id="defs1896">
    <inkscape:perspective
       sodipodi:type="inkscape:persp3d"
       inkscape:vp_x="0 : 600 : 1"
       inkscape:vp_y="0 : 1000 : 0"
       inkscape:vp_z="810 : 600 : 1"
       inkscape:persp3d-origin="405 : 400 : 1"
       id="perspective24" />
    <style
       type="text/css"
       id="style6" />
    <style
       type="text/css"
       id="style2282" />
  </defs>
  <g
     inkscape:groupmode="layer"
     id="layer1"
     inkscape:label="staff"
     style="display:inline"
     sodipodi:insensitive="true">
    <g
       transform="translate(19.223193,196.55764)"
       id="g1934">
      <path
         d="M 4.2160405,395.78396 L 795.78395,395.78396"
         style="fill:none;fill-rule:evenodd;stroke:#131516;stroke-width:8.43207264"
         id="path11" />
      <path
         d="M 4.2160405,635.78396 L 795.78395,635.78396"
         style="fill:none;fill-rule:evenodd;stroke:#131516;stroke-width:8.43207264"
         id="path13" />
      <path
         d="M 4.2160405,515.78396 L 795.78395,515.78396"
         style="fill:none;fill-rule:evenodd;stroke:#131516;stroke-width:8.43207264"
         id="path15" />
      <path
         d="M 4.2160405,275.78396 L 795.78395,275.78396"
         style="fill:none;fill-rule:evenodd;stroke:#131516;stroke-width:8.43207264"
         id="path17" />
      <path
         d="M 4.2160405,155.78396 L 795.78395,155.78396"
         style="fill:none;fill-rule:evenodd;stroke:#131516;stroke-width:8.43207264"
         id="path19" />
    </g>
  </g>
  <g
     inkscape:groupmode="layer"
     id="layer2"
     inkscape:label="clef"
     style="display:inline">
    <path
       id="path2432"
       style="fill:#131516;stroke:#131516;stroke-width:0.60001558"
       d="M 103.85139,588.14124 L 103.85139,127.72297 L 103.85139,117.54026 L 157.14449,117.54026 L 157.14449,577.95853 L 157.14449,588.14124 L 103.85139,588.14124 z M 183.99139,588.14124 L 183.99139,127.72297 L 183.99139,117.54026 L 201.02114,117.54026 L 201.02114,348.14872 C 209.43584,343.75618 218.05089,334.77143 226.46559,320.5955 C 235.08064,306.61923 242.29324,291.84432 247.90304,276.0711 C 253.51284,260.29788 256.51809,248.71754 256.91879,241.13042 C 259.52334,257.90195 263.73069,271.27923 269.34049,281.46194 C 275.15064,291.44499 281.36149,298.63279 288.57409,303.02533 C 295.78669,307.21821 302.79894,309.41448 310.01154,309.41448 C 327.84269,309.41448 339.06229,301.42804 343.87069,285.2555 C 348.67909,269.08296 351.08329,249.31652 351.08329,225.95619 C 351.08329,215.37415 350.88294,205.79042 350.28189,197.40466 C 349.68084,189.0189 348.47874,180.43348 346.27489,171.84805 C 344.27139,163.26263 340.86544,155.47585 336.05704,148.68738 C 331.04829,141.8989 324.63709,137.10704 316.62309,134.71111 C 309.41049,132.7145 302.19789,131.71619 295.18564,131.71619 C 288.77444,131.71619 283.36499,132.91416 279.15764,135.11043 C 274.74994,137.3067 272.34574,140.70094 271.94504,144.69416 C 272.94679,148.28806 275.35099,152.48094 279.55834,157.47246 C 283.76569,162.26433 286.57059,166.05789 288.17339,168.45382 C 289.77619,170.84975 290.57759,174.24399 290.57759,178.83619 C 290.57759,187.02229 287.77269,193.81076 282.16289,199.40127 C 276.55309,204.99178 269.14014,207.9867 259.72369,207.9867 C 250.50759,207.9867 242.89429,204.59246 237.28449,198.00365 C 231.67469,191.21517 228.66944,183.22873 228.26874,174.24399 C 229.07014,162.06467 233.47784,151.48263 241.29149,142.69755 C 249.30549,134.11213 259.12264,127.52331 270.94329,123.13077 C 282.76394,118.73823 294.58459,116.54196 306.60559,116.54196 C 320.22939,116.54196 333.25214,118.93789 345.67384,123.72975 C 358.29589,128.52162 369.51549,135.70941 379.13229,144.89382 C 388.94944,154.27789 396.76309,165.65856 402.37289,179.23551 C 407.98269,192.6128 410.78759,207.9867 410.78759,224.95788 C 410.78759,248.51788 406.37989,268.08466 397.76484,283.45855 C 388.94944,299.03211 377.72984,310.61245 364.10604,317.80024 C 350.28189,324.98804 335.65634,328.98126 320.22939,329.38058 C 304.20139,328.38228 290.77794,324.78838 280.15939,318.59889 L 258.92229,352.94058 L 280.15939,387.08261 C 294.78494,381.09278 309.21014,378.09787 323.23464,378.09787 C 341.06579,378.09787 356.49274,383.28905 369.91619,393.2721 C 383.13929,403.45481 393.35714,416.43278 400.36939,432.60532 C 407.18129,448.77786 410.78759,465.34972 410.78759,482.52057 C 410.78759,501.2887 406.58024,518.85887 398.16554,535.03141 C 389.75084,551.20395 377.93019,563.98226 362.70359,573.76565 C 347.27664,583.34937 329.84619,588.14124 310.01154,588.14124 C 286.97129,587.14293 267.73769,581.75209 252.31074,571.76904 C 236.88379,561.98565 229.27049,547.21073 229.27049,527.84362 C 230.07189,518.45955 233.47784,511.27175 239.48834,505.88091 C 245.49884,500.2904 251.91004,497.49515 258.92229,496.89616 C 267.33699,496.89616 274.95029,499.89108 281.56184,505.88091 C 288.17339,511.67108 291.57934,519.05853 291.57934,527.84362 C 291.57934,531.23785 290.77794,534.43243 289.17514,537.42735 C 287.57234,540.2226 285.36849,543.61684 282.16289,547.61006 C 278.95729,551.40362 276.75344,554.19887 275.55134,555.99582 C 274.34924,557.99243 273.34749,560.1887 272.94679,562.98395 C 272.94679,566.57785 275.15064,569.57277 279.75869,571.9687 C 284.16639,574.36463 289.97654,575.76226 296.98879,576.36124 C 319.02729,575.36294 333.65284,565.97887 341.06579,548.60836 C 348.27839,530.83853 351.88469,509.07548 351.88469,482.52057 C 351.88469,459.55955 349.28014,439.39379 344.07104,422.22295 C 338.86194,404.85244 327.64234,396.26702 310.01154,396.26702 C 294.38424,396.26702 282.36324,402.85583 273.94854,416.43278 C 265.53384,429.81007 260.12439,445.58328 257.72019,463.75244 C 255.11564,448.37854 251.10864,433.60363 245.29849,419.42769 C 239.48834,405.0521 232.87679,392.47346 225.06314,381.69176 C 217.65019,371.10973 209.43584,362.52431 201.02114,356.53448 L 201.02114,588.14124 L 183.99139,588.14124 z" />
  </g>
  <g
     inkscape:groupmode="layer"
     id="layer3"
     inkscape:label="notes"
     style="display:inline">
    <path
       sodipodi:type="arc"
       style="fill:#ffffff;fill-opacity:1;stroke:none;stroke-width:0.5;stroke-miterlimit:4;stroke-dasharray:none;stroke-dashoffset:0;stroke-opacity:1"
       id="path3276"
       sodipodi:cx="656.68701"
       sodipodi:cy="471.37259"
       sodipodi:rx="108.83295"
       sodipodi:ry="108.83295"
       d="M 765.51996,471.37259 A 108.83295,108.83295 0 1 1 547.85406,471.37259 A 108.83295,108.83295 0 1 1 765.51996,471.37259 z"
       transform="matrix(0.8480015,0,0,0.8480015,42.632065,-48.352043)" />
    <text
       xml:space="preserve"
       style="font-size:144px;font-style:normal;font-variant:normal;font-weight:normal;font-stretch:normal;text-align:start;line-height:100%;writing-mode:lr-tb;text-anchor:start;fill:#000000;fill-opacity:1;stroke:none;stroke-width:1px;stroke-linecap:butt;stroke-linejoin:miter;stroke-opacity:1;font-family:Sans;-inkscape-font-specification:Sans"
       x="511.35129"
       y="403.79059"
       id="text3278"
       sodipodi:linespacing="100%"><tspan
         sodipodi:role="line"
         id="tspan3280"
         x="511.35129"
         y="403.79059">C4</tspan></text>
  </g>
</svg>
