<?xml version="1.0" encoding="utf-8"?>
<!-- Generator: Adobe Illustrator 16.0.0, SVG Export Plug-In . SVG Version: 6.00 Build 0)  -->
<!DOCTYPE svg PUBLIC "-//W3C//DTD SVG 1.1//EN" "http://www.w3.org/Graphics/SVG/1.1/DTD/svg11.dtd">
<svg version="1.1"
	 id="svg1894" xmlns:dc="http://purl.org/dc/elements/1.1/" xmlns:cc="http://creativecommons.org/ns#" xmlns:rdf="http://www.w3.org/1999/02/22-rdf-syntax-ns#" xmlns:svg="http://www.w3.org/2000/svg" xmlns:inkscape="http://www.inkscape.org/namespaces/inkscape" xmlns:sodipodi="http://sodipodi.sourceforge.net/DTD/sodipodi-0.dtd" inkscape:output_extension="org.inkscape.output.svg.inkscape" sodipodi:version="0.32" sodipodi:docname="Bass_clef_with_ref.svg" inkscape:version="0.46"
	 xmlns="http://www.w3.org/2000/svg" xmlns:xlink="http://www.w3.org/1999/xlink" x="0px" y="0px" width="455.5px" height="1200px"
	 viewBox="0 0 455.5 1200" enable-background="new 0 0 455.5 1200" xml:space="preserve">
<sodipodi:namedview  inkscape:cy="600" inkscape:cx="468.53292" inkscape:zoom="1.0842304" showgrid="false" pagecolor="#ffffff" bordercolor="#666666" guidetolerance="10.0" objecttolerance="10.0" gridtolerance="10.0" borderopacity="1.0" id="base" inkscape:current-layer="layer3" inkscape:window-y="94" inkscape:window-x="166" inkscape:pageopacity="0.0" inkscape:pageshadow="2" inkscape:window-height="838" inkscape:window-width="1489">
	</sodipodi:namedview>
<defs>
	
	
		<inkscape:perspective  inkscape:vp_z="810 : 600 : 1" inkscape:vp_y="0 : 1000 : 0" inkscape:vp_x="0 : 600 : 1" sodipodi:type="inkscape:persp3d" id="perspective2535" inkscape:persp3d-origin="405 : 400 : 1">
		</inkscape:perspective>
</defs>
<g id="layer1" inkscape:label="staff" inkscape:groupmode="layer">
	<g id="g1934" transform="translate(8.39131,189.08701)">
		<path id="path11" fill="none" stroke="#131516" stroke-width="8.4321" d="M4.216,395.784h428.893"/>
		<path id="path13" fill="none" stroke="#131516" stroke-width="8.4321" d="M4.216,635.784h428.893"/>
		<path id="path15" fill="none" stroke="#131516" stroke-width="8.4321" d="M4.216,515.784h428.893"/>
		<path id="path17" fill="none" stroke="#131516" stroke-width="8.4321" d="M4.216,275.784h428.893"/>
		<path id="path19" fill="none" stroke="#131516" stroke-width="8.4321" d="M4.216,155.784h428.893"/>
	</g>
</g>
<g id="layer2" inkscape:label="clef" inkscape:groupmode="layer">
	<path id="path2070" stroke="#131516" stroke-width="0.6211" d="M43.928,729.002c32.757-22.118,57.222-38.862,72.979-50.438
		c15.756-11.37,32.342-25.633,49.343-42.584c17-16.951,31.306-36.176,42.916-57.468c9.123-15.71,17-33.901,23.428-54.573
		c6.427-20.465,9.744-40.31,10.366-59.121c0-17.571-2.281-34.315-7.049-50.026c-4.562-15.917-12.439-28.94-23.635-39.483
		c-11.195-10.336-25.708-15.504-43.746-15.504c-17.415,0-33.794,3.514-49.136,10.336c-15.135,7.028-25.916,18.191-31.928,33.902
		c0,1.447-0.829,3.307-2.073,5.995c0.415,3.308,2.073,5.788,5.183,7.648c3.11,1.861,5.805,2.688,8.293,2.688
		c1.244,0,4.769-0.62,10.159-1.86c5.598-1.24,10.159-2.067,13.891-2.067c10.988,0,20.732,3.928,29.647,11.576
		c8.708,7.648,13.062,16.951,13.062,27.907c0,7.855-2.281,15.297-6.634,22.118c-4.354,6.822-10.366,12.403-18.038,16.331
		c-7.671,4.135-16.171,5.995-25.293,5.995c-16.586,0-30.684-4.962-42.294-15.091c-11.403-10.336-17.208-23.359-17.208-39.689
		c0-20.879,6.427-38.863,19.074-54.16c12.854-15.297,29.025-26.667,48.929-34.315c19.696-7.855,39.599-11.576,59.917-11.576
		c22.184,0,43.331,5.581,63.027,16.951c19.903,11.163,35.453,26.667,47.063,45.891c11.61,19.431,17.622,40.103,17.622,62.429
		c0,39.689-13.269,76.485-39.806,110.594s-59.295,63.669-98.479,88.889c-26.123,17.157-68.417,40.31-126.676,69.457L43.928,729.002z
		 M331.902,409.21c0-7.442,2.694-13.644,8.085-18.605c5.184-5.167,11.61-7.648,19.281-7.648c6.635,0,12.854,2.894,18.452,8.476
		c5.598,5.375,8.293,11.783,8.293,18.811c0,7.442-2.902,13.85-8.293,19.018c-5.805,4.961-12.232,7.442-19.488,7.442
		c-7.671,0-13.891-2.481-18.867-8.062C334.39,423.267,331.902,416.859,331.902,409.21z M331.902,517.53
		c0-7.441,2.694-13.851,7.671-18.812c5.183-5.168,11.609-7.648,19.695-7.648c6.635,0,12.647,2.688,18.452,8.269
		c5.391,5.582,8.293,11.576,8.293,18.191c0,8.062-2.695,14.47-7.878,19.638c-5.391,5.168-11.61,7.855-18.867,7.855
		c-8.086,0-14.513-2.688-19.695-7.648C334.597,532.414,331.902,525.799,331.902,517.53z"/>
</g>
</svg>
