<?xml version="1.0" encoding="utf-8"?>
<!-- Generator: Adobe Illustrator 16.0.0, SVG Export Plug-In . SVG Version: 6.00 Build 0)  -->
<!DOCTYPE svg PUBLIC "-//W3C//DTD SVG 1.1//EN" "http://www.w3.org/Graphics/SVG/1.1/DTD/svg11.dtd">
<svg version="1.1"
	 id="svg2" xmlns:dc="http://purl.org/dc/elements/1.1/" xmlns:cc="http://creativecommons.org/ns#" xmlns:rdf="http://www.w3.org/1999/02/22-rdf-syntax-ns#" xmlns:svg="http://www.w3.org/2000/svg"
	 xmlns="http://www.w3.org/2000/svg" xmlns:xlink="http://www.w3.org/1999/xlink" x="0px" y="0px" width="199.469px"
	 height="103.046px" viewBox="0 0 199.469 103.046" enable-background="new 0 0 199.469 103.046" xml:space="preserve">
<g id="g3862" transform="translate(-0.24707682,-46.942827)">
	<path id="path3859" d="M85.094,139.35c0-4.524,2.15-8.527,6.449-12.008c4.3-3.567,8.853-5.351,13.658-5.351
		c2.782,0,5.27,0.738,7.461,2.219V46.943h2.783v84.445c0,4.873-2.066,8.919-6.197,12.139c-4.131,3.219-8.684,4.828-13.658,4.828
		c-2.782,0-5.227-0.826-7.334-2.479C86.147,144.136,85.094,141.96,85.094,139.35 M90.911,143.265c4.468,0,8.979-1.957,13.532-5.873
		c4.637-3.916,6.955-6.83,6.955-8.744c0-1.219-0.506-1.828-1.518-1.828c-3.119,0-7.42,1.871-12.899,5.613
		c-5.396,3.654-8.093,6.699-8.093,9.136C88.888,142.7,89.562,143.265,90.911,143.265"/>
</g>
</svg>
