<?xml version="1.0" encoding="utf-8"?>
<!-- Generator: Adobe Illustrator 16.0.0, SVG Export Plug-In . SVG Version: 6.00 Build 0)  -->
<!DOCTYPE svg PUBLIC "-//W3C//DTD SVG 1.1//EN" "http://www.w3.org/Graphics/SVG/1.1/DTD/svg11.dtd">
<svg version="1.1"
	 id="svg2" sodipodi:docname="Music-sixteenthnote.svg" inkscape:version="0.48.1 r9760" xmlns:inkscape="http://www.inkscape.org/namespaces/inkscape" xmlns:sodipodi="http://sodipodi.sourceforge.net/DTD/sodipodi-0.dtd" xmlns:dc="http://purl.org/dc/elements/1.1/" xmlns:cc="http://creativecommons.org/ns#" xmlns:rdf="http://www.w3.org/1999/02/22-rdf-syntax-ns#" xmlns:svg="http://www.w3.org/2000/svg"
	 xmlns="http://www.w3.org/2000/svg" xmlns:xlink="http://www.w3.org/1999/xlink" x="0px" y="0px" width="200px" height="200px"
	 viewBox="0 0 200 200" enable-background="new 0 0 200 200" xml:space="preserve">
<sodipodi:namedview  inkscape:current-layer="svg2" inkscape:window-maximized="1" inkscape:window-y="24" inkscape:window-x="0" inkscape:guide-bbox="true" inkscape:window-height="1031" inkscape:window-width="1920" inkscape:pageshadow="2" inkscape:pageopacity="0" inkscape:bbox-paths="true" inkscape:snap-bbox="true" inkscape:cy="30.651932" inkscape:cx="206.22628" inkscape:zoom="2" showguides="true" showgrid="false" guidetolerance="10" gridtolerance="10" objecttolerance="10" borderopacity="1" id="namedview4" bordercolor="#666666" pagecolor="#ffffff" inkscape:snap-bbox-edge-midpoints="true">
	</sodipodi:namedview>
<g id="g3850" transform="translate(0.1996001,-0.08838835)">
	<path id="path2991" inkscape:connector-curvature="0" d="M111.875,37.906l0.188,87.563c-1.874-2.543-9.758-4.198-16.562,0.156
		c-6.804,4.354-10.889,11.634-8.531,15.938c2.69,4.911,11.636,7.541,18.75,2.438c5.145-3.691,7.619-8.434,8.406-9.844V89.5
		c18.893,12.47,28.182,14.866,18.562,41.188c9.443-12.196,8.762-20.065,3.812-28.219c0.739-5.486,0.777-9.689,0.281-13.063
		c5.41-31.293-13.668-28.605-22.656-48.281v-3.062L111.875,37.906z M114.125,56.125c18.977,10.239,20.721,20.273,21.219,28
		c-3.677-8.547-12.505-11.152-21.219-25.344V56.125z M114.125,71.5c19.232,16.368,19.158,12.504,21.469,29.532
		C130.343,93.102,121.414,84.644,114.125,71.5z"/>
</g>
</svg>
