<?xml version="1.0" encoding="utf-8"?>
<!-- Generator: Adobe Illustrator 16.0.0, SVG Export Plug-In . SVG Version: 6.00 Build 0)  -->
<!DOCTYPE svg PUBLIC "-//W3C//DTD SVG 1.1//EN" "http://www.w3.org/Graphics/SVG/1.1/DTD/svg11.dtd">
<svg version="1.1"
	 id="svg2" sodipodi:docname="SixtyFourthNote.svg" inkscape:version="0.48.1 r9760" xmlns:inkscape="http://www.inkscape.org/namespaces/inkscape" xmlns:sodipodi="http://sodipodi.sourceforge.net/DTD/sodipodi-0.dtd" xmlns:dc="http://purl.org/dc/elements/1.1/" xmlns:cc="http://creativecommons.org/ns#" xmlns:rdf="http://www.w3.org/1999/02/22-rdf-syntax-ns#" xmlns:svg="http://www.w3.org/2000/svg"
	 xmlns="http://www.w3.org/2000/svg" xmlns:xlink="http://www.w3.org/1999/xlink" x="0px" y="0px" width="599px" height="397.979px"
	 viewBox="0 0 599 397.979" enable-background="new 0 0 599 397.979" xml:space="preserve">
<sodipodi:namedview  inkscape:current-layer="layer2" inkscape:window-maximized="0" inkscape:window-y="25" inkscape:window-x="0" inkscape:window-height="1051" inkscape:window-width="1165" inkscape:pageshadow="2" inkscape:pageopacity="0.0" fit-margin-bottom="1" fit-margin-right="1" inkscape:document-units="px" fit-margin-left="1" fit-margin-top="1" inkscape:cy="-44.395187" inkscape:cx="443.97472" inkscape:zoom="0.49497475" showgrid="false" borderopacity="1.0" id="base" bordercolor="#666666" pagecolor="#ffffff">
	</sodipodi:namedview>
<g id="layer2" transform="translate(-82.84375,-214.4375)" sodipodi:insensitive="true" inkscape:groupmode="layer" inkscape:label="Vectors">
	
		<path id="path3872" inkscape:connector-curvature="0" sodipodi:nodetypes="cczssccscsscccsscsccssscsccsssscc" stroke="#000000" d="
		M418.203,216.015v329.251c-8.586-7.071-32.83-6.566-51.518,2.525c-18.688,9.091-30.256,22.769-29.8,37.881
		c0.369,12.192,15.658,21.213,30.81,21.213c15.152,0,44.447-5.935,56.568-37.755c0.506-43.437,0-133.466,0-133.466
		c23.739,19.192,47.585,26.79,57.074,40.406c18.717,26.857,0.505,73.235-1.516,80.307c5.438-6.995,16.311-26.044,16.132-48.788
		c-0.106-13.637,0.031-41.62-31.284-68.39c-31.314-26.769-40.584-40.171-40.584-65.425c23.085,19.32,67.567,32.36,62.599,92.378
		c1.688,3.556,2.877,6.642,2.877,6.642c6.516-20.661,4.908-52.787-10.244-72.99s-33.896-29.245-44.952-44.447
		c-8.081-11.111-9.774-17.024-10.279-34.197c22.729,15.152,47.684,33.109,53.211,43.794c12.186,23.556,11.26,40.59,10.25,49.682
		c2.969,6.948,2.372,8.759,2.372,8.759s3.122-10.315,3.122-24.458c0-14.142,0.419-27.922-14.229-51.66s-41.367-35.101-47.982-48.992
		c-5.051-10.606-6.313-14.143-6.566-28.284c23.234,14.142,34.851,20.203,46.468,36.365c11.616,16.162,16.938,20.637,16.488,56.456
		c2.525,5.557,2.199,7.184,2.199,7.184s4.484-20.979,3.147-37.8c-1.126-14.178-6.683-29.375-19.814-45.033
		c-13.133-15.657-31.936-31.271-41.417-41.921c-6.27-7.043-6.826-11.089-6.893-16.007l-0.179-13.287L418.203,216.015z"/>
</g>
</svg>
