<?xml version="1.0" encoding="utf-8"?>
<!-- Generator: Adobe Illustrator 16.0.0, SVG Export Plug-In . SVG Version: 6.00 Build 0)  -->
<!DOCTYPE svg PUBLIC "-//W3C//DTD SVG 1.1//EN" "http://www.w3.org/Graphics/SVG/1.1/DTD/svg11.dtd">
<svg version="1.1"
	 id="svg2" sodipodi:docname="Music-doublewholenote.png" inkscape:version="0.47 r22583" xmlns:inkscape="http://www.inkscape.org/namespaces/inkscape" xmlns:sodipodi="http://sodipodi.sourceforge.net/DTD/sodipodi-0.dtd" xmlns:dc="http://purl.org/dc/elements/1.1/" xmlns:cc="http://creativecommons.org/ns#" xmlns:rdf="http://www.w3.org/1999/02/22-rdf-syntax-ns#" xmlns:svg="http://www.w3.org/2000/svg"
	 xmlns="http://www.w3.org/2000/svg" xmlns:xlink="http://www.w3.org/1999/xlink" x="0px" y="0px" width="600px" height="298.75px"
	 viewBox="0 0 600 298.75" enable-background="new 0 0 600 298.75" xml:space="preserve">
<defs>
	
	
		<inkscape:perspective  inkscape:persp3d-origin="0.5 : 0.33333333 : 1" inkscape:vp_y="0 : 1000 : 0" sodipodi:type="inkscape:persp3d" inkscape:vp_x="0 : 0.5 : 1" inkscape:vp_z="1 : 0.5 : 1" id="perspective10">
		</inkscape:perspective>
</defs>
<sodipodi:namedview  inkscape:current-layer="svg2" inkscape:window-maximized="0" inkscape:window-y="33" inkscape:window-x="0" inkscape:window-height="756" inkscape:window-width="1223" inkscape:pageshadow="2" inkscape:pageopacity="0" inkscape:cy="77.212406" inkscape:cx="212.70832" inkscape:zoom="2.4" showgrid="false" guidetolerance="10" gridtolerance="10" objecttolerance="10" borderopacity="1" id="namedview4" bordercolor="#666666" pagecolor="#ffffff">
	<inkscape:grid  snapvisiblegridlinesonly="true" type="xygrid" empspacing="5" visible="true" enabled="true" id="grid2830">
		</inkscape:grid>
</sodipodi:namedview>
<g id="g2839" transform="matrix(2.9999995,0,0,2.9999995,839.37492,-64.416522)">
	<path id="path2818" sodipodi:nodetypes="cccccccccccccccccsccccccsscccccc" d="M-211,56h3v30h-3V56z M-203,56h3v12.417l2.575-3.06
		c6.434-7.646,25.131-8.008,32.946-0.638L-161,68V56h3v30h-3V74.11l-2.575,3.061c-2.889,3.433-10.279,6.093-16.925,6.093
		s-14.037-2.66-16.925-6.093L-200,74.11V86h-3V56z M-173.398,78.748c3.059-4.668,0.134-13.917-5.163-16.33
		c-7.78-3.545-12.548,2.496-9.308,11.791C-185.628,80.638-176.51,83.498-173.398,78.748z M-153,56h3v30h-3V56z"/>
</g>
</svg>
