<?xml version="1.0" encoding="utf-8"?>
<!-- Generator: Adobe Illustrator 16.0.0, SVG Export Plug-In . SVG Version: 6.00 Build 0)  -->
<!DOCTYPE svg PUBLIC "-//W3C//DTD SVG 1.1//EN" "http://www.w3.org/Graphics/SVG/1.1/DTD/svg11.dtd">
<svg version="1.1" id="Calque_1" xmlns="http://www.w3.org/2000/svg" xmlns:xlink="http://www.w3.org/1999/xlink" x="0px" y="0px"
	 width="99.339px" height="105.837px" viewBox="0 0 99.339 105.837" enable-background="new 0 0 99.339 105.837"
	 xml:space="preserve">
<g>
	<path fill="#FFFFFF" d="M44.667,66.433c-0.825,2.75-1.634,5.244-2.424,7.479c-0.792,2.236-1.686,4.402-2.682,6.498
		c-0.998,2.098-2.15,4.264-3.456,6.5c-1.307,2.232-2.924,4.727-4.848,7.479c-1.444,2.131-3.043,3.92-4.797,5.363
		c-1.754,1.445-3.507,2.613-5.261,3.508c-1.754,0.893-3.456,1.547-5.106,1.959c-1.65,0.414-3.13,0.619-4.436,0.619
		c-1.583,0-3.061-0.154-4.436-0.463c-1.375-0.311-2.613-0.811-3.713-1.496c-1.099-0.689-1.96-1.547-2.579-2.58
		C0.31,100.267,0,99.03,0,97.585c0.139-1.65,0.688-2.957,1.65-3.92c0.964-0.963,1.996-1.443,3.095-1.443
		c3.438,0,5.364,1.994,5.777,5.982c0.137,1.1,0.446,1.994,0.928,2.682c0.48,0.688,1.203,1.1,2.167,1.238
		c1.305,0,2.716-0.586,4.229-1.754c1.512-1.17,2.682-2.82,3.507-4.951c1.032-2.545,2.27-5.812,3.714-9.801s3.059-9.111,4.848-15.369
		l14.648-50.443c0.343-1.099,0.067-1.788-0.826-2.063c-0.895-0.274-2.785-0.413-5.673-0.413c-4.333,0-8.064,0.327-11.192,0.98
		c-3.13,0.654-5.691,1.513-7.685,2.579c-1.996,1.067-3.474,2.321-4.436,3.765c-0.964,1.444-1.444,2.958-1.444,4.539
		c0,1.583,0.361,2.682,1.083,3.301c0.722,0.619,1.427,0.929,2.115,0.929c0.55,0,1.323-0.137,2.321-0.413
		c0.996-0.274,1.806-0.413,2.424-0.413c1.032,0,1.994,0.448,2.888,1.341c0.893,0.895,1.341,2.029,1.341,3.404
		c0,1.513-0.567,2.888-1.702,4.126c-1.135,1.238-2.7,1.857-4.693,1.857c-0.758,0-1.686-0.171-2.785-0.516
		c-1.101-0.343-2.15-0.962-3.146-1.857c-0.998-0.893-1.857-2.131-2.579-3.713c-0.722-1.582-1.083-3.611-1.083-6.086
		c0-1.238,0.137-2.595,0.413-4.075c0.274-1.478,0.756-2.974,1.444-4.487c0.687-1.512,1.633-2.956,2.837-4.333
		c1.202-1.375,2.733-2.646,4.59-3.817c1.444-0.893,2.974-1.65,4.59-2.269c1.615-0.619,3.438-1.135,5.467-1.547
		c2.028-0.413,4.281-0.705,6.757-0.877c2.476-0.171,5.294-0.258,8.458-0.258c1.788,0,3.885,0.087,6.292,0.258
		c2.407,0.172,4.849,0.379,7.324,0.619c2.476,0.242,4.882,0.516,7.221,0.825c2.337,0.309,4.333,0.603,5.983,0.876
		c2.75,0.482,5.483,0.946,8.201,1.393c2.716,0.448,5.071,0.671,7.066,0.671c1.65,0,3.077-0.223,4.281-0.671
		c1.203-0.446,1.805-1.599,1.805-3.456c0-0.343-0.103-0.738-0.31-1.186c-0.206-0.447-0.413-0.911-0.619-1.393
		c-0.758-1.651-1.135-2.853-1.135-3.611c0-0.687,0.274-1.496,0.825-2.424C91.533,0.464,92.531,0,93.975,0
		c1.994,0,3.386,0.637,4.177,1.908c0.79,1.273,1.187,2.563,1.187,3.868c0,1.032-0.294,2.408-0.876,4.126
		c-0.586,1.72-1.566,3.404-2.94,5.055c-1.377,1.65-3.216,3.079-5.519,4.281c-2.305,1.204-5.176,1.805-8.614,1.805
		c-2.476,0-4.951-0.119-7.427-0.361c-2.476-0.24-4.575-0.429-6.293-0.567l-9.181-0.928l-5.467,20.321l18.981,0.207l1.753-0.103
		c-1.101,2.202-1.96,3.955-2.579,5.261c-0.619,1.307-1.222,2.305-1.805,2.992c-0.585,0.688-1.238,1.119-1.96,1.289
		c-0.722,0.173-1.771,0.224-3.146,0.155c-1.376-0.067-3.182-0.188-5.416-0.361c-2.236-0.171-5.106-0.292-8.614-0.361L44.667,66.433z
		"/>
</g>
</svg>
