<?xml version="1.0" encoding="utf-8"?>
<!-- Generator: Adobe Illustrator 16.0.0, SVG Export Plug-In . SVG Version: 6.00 Build 0)  -->
<!DOCTYPE svg PUBLIC "-//W3C//DTD SVG 1.1//EN" "http://www.w3.org/Graphics/SVG/1.1/DTD/svg11.dtd">
<svg version="1.1"
	 id="svg1894" xmlns:inkscape="http://www.inkscape.org/namespaces/inkscape" xmlns:sodipodi="http://sodipodi.sourceforge.net/DTD/sodipodi-0.dtd" xmlns:dc="http://purl.org/dc/elements/1.1/" xmlns:cc="http://creativecommons.org/ns#" xmlns:rdf="http://www.w3.org/1999/02/22-rdf-syntax-ns#" xmlns:svg="http://www.w3.org/2000/svg" sodipodi:docname="Treble_clef_with_ref.svg" inkscape:version="0.46" sodipodi:version="0.32" inkscape:output_extension="org.inkscape.output.svg.inkscape"
	 xmlns="http://www.w3.org/2000/svg" xmlns:xlink="http://www.w3.org/1999/xlink" x="0px" y="0px" width="285.523px"
	 height="812.185px" viewBox="88.333 193.908 285.523 812.185" enable-background="new 88.333 193.908 285.523 812.185"
	 xml:space="preserve">
<sodipodi:namedview  inkscape:cy="600" inkscape:cx="598.03434" inkscape:zoom="0.76666666" showgrid="false" pagecolor="#ffffff" bordercolor="#666666" id="base" borderopacity="1.0" gridtolerance="10.0" guidetolerance="10.0" objecttolerance="10.0" inkscape:current-layer="layer3" inkscape:window-y="78" inkscape:window-x="212" inkscape:window-width="1371" inkscape:window-height="890" inkscape:pageopacity="0.0" inkscape:pageshadow="2">
	</sodipodi:namedview>
<defs>
	
	
		<inkscape:perspective  inkscape:vp_z="810 : 600 : 1" inkscape:vp_y="0 : 1000 : 0" inkscape:vp_x="0 : 600 : 1" sodipodi:type="inkscape:persp3d" id="perspective2603" inkscape:persp3d-origin="405 : 400 : 1">
		</inkscape:perspective>
</defs>
<g id="layer2" inkscape:label="clef" inkscape:groupmode="layer">
	<path id="path9" fill="#131516" stroke="#131516" stroke-width="0.6023" d="M253.154,641.98
		c-12.467,2.557-24.021,9.397-35.048,20.294c-11.042,11.098-16.952,23.754-17.918,37.758c-0.607,8.802,1.71,19.012,6.794,30.015
		c5.07,11.204,13.355,19.614,24.44,25.404c3.755,1.063,5.421,3.188,5.228,5.988c-0.069,1.001-1.542,1.904-5.006,2.469
		c-17.931-5.86-32.294-16.7-42.917-32.105c-10.609-15.605-15.466-32.825-14.542-52.057c2.023-20.563,9.564-39.339,22.61-56.126
		c13.261-16.974,29.571-28.511,48.932-34.612l-8.937-71.971c-32.648,23.475-59.551,48.352-80.935,75.016
		c-21.37,26.464-33.481,55.979-36.533,88.531c-0.606,14.631,1.422,29.041,6.098,43.031c4.662,14.19,12.229,27.175,22.672,39.353
		c21.1,24.168,49.764,38.005,85.576,41.682c12.288,0.044,25.474-1.257,39.759-3.89L253.154,641.98z M267.73,640.977l20.668,155.992
		c31.738-10.271,49.042-36.213,51.885-77.422c-0.853-13.928-4.008-26.606-10.066-38.08c-5.845-11.658-14.061-21.069-24.849-28.246
		C294.581,646.045,282.168,641.973,267.73,640.977z M240.977,430.094c6.894-3.545,14.997-10.021,23.895-19.255
		c8.884-9.035,17.692-19.884,26.196-32.161c8.718-12.463,15.846-25.237,21.382-38.322c5.523-12.885,8.599-25.335,9.399-36.938
		c0.346-5.001,0.289-10.03-0.41-14.5c-0.305-7.257-2.124-13.01-5.672-17.074c-3.562-3.864-8.236-6.196-14.252-6.611
		c-12.032-0.83-23.372,5.825-34.019,19.963c-8.303,12.291-15.568,27.065-21.167,43.965c-5.813,17.086-9.607,34.11-11.209,51.486
		C234.756,400.52,236.847,416.945,240.977,430.094z M227.542,440.824c-6.788-33.03-9.523-66.383-8.208-100.06
		c1.691-21.591,5.292-41.644,10.8-60.157c5.308-18.527,12.242-34.33,20.828-47.807c8.386-13.491,17.74-23.499,27.862-30.036
		c9.064-5.807,15.516-8.778,18.925-8.543c2.607,0.18,4.744,1.332,6.625,3.271c1.881,1.938,4.281,5.119,7.213,9.341
		c21.531,35.454,30.747,77.094,27.462,124.704c-1.56,22.605-6.086,44.402-13.62,65.992c-7.32,21.403-17.379,41.613-30.147,60.229
		c-12.983,18.802-27.793,34.865-44.643,48.375l10.805,79.938c8.893-0.392,14.963-0.776,18.373-0.541
		c15.24,1.052,28.656,5.193,40.847,12.466c12.192,7.273,22.427,16.622,30.491,28.233c8.078,11.411,14.04,24.285,17.887,38.62
		c3.646,14.321,5.245,29.104,4.196,44.308c-1.629,23.605-9.336,44.781-23.107,63.328c-13.771,18.546-33.401,31.462-59.103,38.935
		c0.928,9.913,2.755,24.31,5.71,42.805c2.741,18.681,4.741,33.491,6.001,44.433c1.26,10.94,1.344,21.398,0.64,31.601
		c-1.09,15.804-5.866,29.544-14.342,41.421c-8.677,11.862-19.767,20.745-33.471,26.634c-13.503,5.902-28.177,8.307-43.818,7.228
		c-22.059-1.522-40.881-9.052-56.483-22.39c-15.588-13.537-23.266-30.749-22.604-52.01c1.25-9.36,4.063-18.01,8.654-26.135
		c4.59-8.126,10.474-14.554,17.851-19.271c7.191-4.931,15.606-7.164,25.072-7.113c7.821,0.539,15.088,3.252,21.817,7.937
		c6.514,4.872,11.729,11.061,15.429,18.753c3.5,7.678,5.14,16.032,4.533,24.834c-0.814,11.803-5.515,21.528-14.103,29.177
		c-8.587,7.648-19.104,11.144-31.336,10.3l-4.612-0.318c6.993,12.542,19.399,19.629,37.246,20.86
		c9.024,0.623,18.386-0.741,27.859-3.706c9.687-3.15,17.853-7.611,24.912-13.557c7.059-5.944,11.94-12.441,14.242-19.519
		c3.975-7.967,6.366-19.259,7.346-33.462c0.662-9.602,0.322-19.273-0.82-29c-1.156-9.526-3.094-22.323-5.828-38.189
		c-2.747-15.666-4.727-27.863-5.765-36.176c-12.239,2.171-24.782,2.913-37.817,2.014c-21.858-1.508-42.209-7.334-61.039-17.678
		c-18.831-10.345-35.02-23.923-48.755-40.951c-13.535-17.014-23.723-35.806-30.536-56.777c-6.627-20.758-9.375-42.254-8.058-64.272
		c2.21-20.349,7.373-39.69,15.862-57.597c8.503-18.105,18.942-35.073,31.504-50.688c12.562-15.614,25.429-29.802,38.586-42.36
		C188.25,475.9,205.667,460.018,227.542,440.824z"/>
</g>
</svg>
